# xmcd
#
# Track frame offsets:
#	150
#	16602
#	47603
#	84056
#	107987
#	129257
#	154498
#	173420
#	191145
#	234460
#	250821
#	268795
#	278610
#	294213
#	321479
#
# Disc length: 4427 seconds
#
# Revision: 1
# Processed by: cddbd v1.5.2PL0 Copyright (c) Steve Scherf et al.
# Submitted via: audiograbber 1.83.01
#
DISCID=c111490f
DTITLE=The Little Louis Band - Footstompin' Ground! 
DYEAR=2008
DGENRE=Blues
TTITLE0=Icewater 
TTITLE1=John Henry 
TTITLE2=Evil Wicked Woman
TTITLE3=The Revelator 
TTITLE4=Ride
TTITLE5=The Devil's Hiding
TTITLE6=Nowhere To Run
TTITLE7=Parchman Farm
TTITLE8=Burning Hell
TTITLE9=Lay Me Low
TTITLE10=Wade in the Water
TTITLE11=Carnival
TTITLE12=Saturday Night and the Sunday Morning Blues
TTITLE13=Trouble No More
TTITLE14=Modern Life Drag
EXTD=
EXTT0=
EXTT1=
EXTT2=
EXTT3=
EXTT4=
EXTT5=
EXTT6=
EXTT7=
EXTT8=
EXTT9=
EXTT10=
EXTT11=
EXTT12=
EXTT13=
EXTT14=
PLAYORDER=
